PathFileType	4	(X/Y/Z)	1H_nor_slow_right.trc
DataRate	CameraRate	NumFrames	NumMarkers	Units	OrigDataRate	OrigDataStartFrame	OrigNumFrames
250.00	250.00	17	18	mm	250.00	22288	25471
Frame#	Time	c7	r_should	l_should	clavicle	r_upa	r_elb_l	r_elb_m	r_low	r_wri_l	r_wri_m	r_met	l_upa	l_elb_l	l_elb_m	l_low	l_wri_l	l_wri_m	l_met
	X1	Y1	Z1	X2	Y2	Z2	X3	Y3	Z3	X4	Y4	Z4	X5	Y5	Z5	X6	Y6	Z6	X7	Y7	Z7	X8	Y8	Z8	X9	Y9	Z9	X10	Y10	Z10	X11	Y11	Z11	X12	Y12	Z12	X13	Y13	Z13	X14	Y14	Z14	X15	Y15	Z15	X16	Y16	Z16	X17	Y17	Z17	X18	Y18	Z18
22288	89.14800	1183.87183	1431.55066	150.93756	1251.46094	1381.88696	299.59637	1173.74976	1363.35034	-25.37635	1295.29114	1294.04932	129.22510	1311.21497	1190.00415	377.32639	1315.23901	1144.40222	401.69101	1248.82434	1073.32629	371.84985	1362.36768	1140.57007	309.14752	1380.51160	1171.65552	206.69237	1381.79993	1092.82300	203.55573	1444.02869	1162.09302	158.95969	1165.91431	1141.91174	-77.08124	1177.46277	1036.30920	-91.53846	1140.34961	1025.33728	-3.91754	1210.76709	924.65308	-77.57500	1261.41699	815.96814	-29.33678	1187.17651	797.76740	-50.51040	1260.68237	732.26367	-68.43172
22289	89.15200	1183.90076	1431.55603	150.90532	1251.43628	1381.89050	299.58350	1173.81384	1363.34399	-25.41662	1295.30762	1294.03564	129.22928	1311.18201	1189.97437	377.26465	1315.18445	1144.38623	401.62686	1248.78760	1073.30371	371.70441	1362.28137	1140.66968	309.08337	1380.39087	1171.94531	206.69760	1381.69214	1093.13599	203.44363	1443.67639	1162.67834	158.73309	1166.01135	1141.90430	-77.10349	1177.56482	1036.29895	-91.54386	1140.40991	1025.33630	-3.94626	1212.17322	923.16394	-76.47523	1261.47424	815.95428	-29.33735	1187.23816	797.76105	-50.55462	1260.74524	732.24829	-68.43885
22290	89.15600	1183.93225	1431.55359	150.87468	1251.41504	1381.89685	299.56815	1173.88062	1363.33313	-25.46571	1295.32458	1294.02405	129.22574	1311.15186	1189.94153	377.20187	1315.13513	1144.37231	401.56348	1248.75159	1073.27502	371.55667	1362.19592	1140.76685	309.02872	1380.27271	1172.23914	206.71199	1381.58655	1093.42407	203.31985	1442.69739	1163.91040	157.97469	1166.11194	1141.89197	-77.11729	1177.65894	1036.29041	-91.55000	1140.47522	1025.33057	-3.97315	1211.96155	923.48889	-76.73477	1261.53271	815.93140	-29.34545	1187.31360	797.75140	-50.58942	1260.80859	732.22961	-68.45504
22291	89.16000	1183.96826	1431.55334	150.84497	1251.39905	1381.89844	299.55460	1173.94495	1363.32312	-25.51844	1295.34583	1294.00732	129.22763	1311.12781	1189.90234	377.12726	1315.08398	1144.35889	401.48859	1248.71448	1073.24963	371.41269	1362.10376	1140.87451	308.95996	1380.16699	1172.54480	206.72887	1381.47046	1093.72070	203.18434	1442.35242	1164.49609	157.74599	1166.21326	1141.87329	-77.13066	1177.75000	1036.27869	-91.56039	1140.53918	1025.32397	-4.00118	1211.33789	924.25952	-77.33035	1261.60083	815.89398	-29.35088	1187.38550	797.73859	-50.62502	1260.87280	732.21002	-68.47602
22292	89.16400	1184.00549	1431.55298	150.81755	1251.39148	1381.89673	299.54288	1174.01550	1363.32275	-25.57521	1295.36462	1293.99170	129.22011	1311.10229	1189.86670	377.05295	1315.02380	1144.34265	401.39688	1248.67432	1073.22791	371.26666	1362.00574	1140.98584	308.89102	1380.06531	1172.84167	206.74724	1381.35913	1094.01855	203.04079	1442.17517	1164.90771	157.65709	1166.31177	1141.85779	-77.15051	1177.84741	1036.26648	-91.57899	1140.61462	1025.31079	-4.03483	1212.50378	923.02844	-76.41813	1261.66675	815.86133	-29.35963	1187.45850	797.72583	-50.65724	1260.93933	732.18860	-68.49752
22293	89.16800	1184.04028	1431.55005	150.78999	1251.38208	1381.89453	299.52594	1174.07019	1363.31445	-25.60765	1295.38464	1293.97583	129.21924	1311.07910	1189.83813	376.97101	1314.96814	1144.33081	401.29807	1248.63660	1073.19897	371.11450	1361.91052	1141.08972	308.81793	1379.97205	1173.13794	206.76402	1381.25110	1094.29932	202.91019	1442.43359	1164.88074	157.95134	1166.40454	1141.84033	-77.17112	1177.94580	1036.25269	-91.59993	1140.69165	1025.30029	-4.05792	1212.85278	922.71295	-76.20673	1261.72888	815.83533	-29.37142	1187.53113	797.70428	-50.68803	1261.00708	732.17023	-68.52353
22294	89.17200	1184.07458	1431.54651	150.75653	1251.36584	1381.89099	299.50226	1174.13586	1363.31201	-25.65126	1295.40540	1293.95801	129.21754	1311.05603	1189.81018	376.90009	1314.91064	1144.31653	401.20776	1248.60547	1073.16650	370.96310	1361.81885	1141.19250	308.74271	1379.88696	1173.43262	206.77650	1381.14709	1094.58508	202.79604	1443.20508	1164.34570	158.68631	1166.48987	1141.82458	-77.18736	1178.03601	1036.23865	-91.61250	1140.76306	1025.28833	-4.08210	1213.00134	922.61884	-76.16895	1261.79346	815.82123	-29.38868	1187.61206	797.68256	-50.71050	1261.07166	732.15259	-68.54851
22295	89.17600	1184.11011	1431.54590	150.72453	1251.33923	1381.89221	299.48239	1174.20679	1363.31311	-25.69518	1295.42932	1293.94397	129.21443	1311.03186	1189.78162	376.82968	1314.85449	1144.31262	401.13223	1248.57385	1073.13818	370.81534	1361.72546	1141.29944	308.66116	1379.78931	1173.73706	206.77518	1381.03101	1094.88867	202.64423	1443.30530	1164.50183	158.83995	1166.57349	1141.80920	-77.20464	1178.11682	1036.22620	-91.62923	1140.83801	1025.27759	-4.10195	1212.47095	923.28534	-76.69974	1261.85657	815.80908	-29.40422	1187.68762	797.67096	-50.74377	1261.13745	732.13849	-68.57840
22296	89.18000	1184.14563	1431.54895	150.69473	1251.31030	1381.89758	299.46112	1174.28589	1363.33105	-25.74553	1295.45435	1293.93481	129.21693	1311.00623	1189.75854	376.75055	1314.41711	1144.78394	400.77954	1248.54297	1073.11548	370.66464	1361.63098	1141.40540	308.57492	1379.68188	1174.01917	206.76447	1380.91760	1095.21057	202.47874	1442.83362	1165.24573	158.50467	1166.65527	1141.79822	-77.22943	1178.21143	1036.20691	-91.64714	1140.90930	1025.26758	-4.13187	1211.76343	924.15436	-77.38048	1261.92712	815.79242	-29.41462	1187.75671	797.65912	-50.77569	1261.21130	732.12805	-68.59850
22297	89.18400	1184.17920	1431.55310	150.66470	1251.27673	1381.90173	299.43597	1174.36536	1363.34705	-25.78844	1295.47839	1293.93079	129.21086	1310.98987	1189.74182	376.67175	1313.51001	1145.83960	400.09277	1248.51709	1073.09485	370.51263	1361.54626	1141.51343	308.49844	1379.57361	1174.30835	206.75189	1380.82703	1095.53271	202.32564	1441.83228	1166.54114	157.70512	1166.73230	1141.79541	-77.25998	1178.29443	1036.20374	-91.67332	1140.97290	1025.26550	-4.16205	1212.28003	923.65790	-77.02557	1262.00281	815.78113	-29.41979	1187.82629	797.65948	-50.79986	1261.29004	732.12585	-68.61784
22298	89.18800	1184.21460	1431.56213	150.63466	1251.24316	1381.90857	299.40991	1174.43250	1363.35559	-25.80647	1295.50256	1293.92871	129.20699	1310.97668	1189.74219	376.59634	1313.24719	1146.10706	399.85104	1248.49768	1073.07532	370.36246	1361.47522	1141.63184	308.42203	1379.47412	1174.62573	206.74068	1380.73523	1095.84888	202.18034	1441.51758	1167.15881	157.47000	1166.79553	1141.80151	-77.29234	1178.36438	1036.20825	-91.70068	1141.04468	1025.26074	-4.19226	1211.82983	924.24811	-77.49383	1262.07214	815.78302	-29.43534	1187.89331	797.65759	-50.82594	1261.37183	732.13312	-68.64261
22299	89.19200	1184.25317	1431.57251	150.59941	1251.20654	1381.91772	299.39151	1174.50220	1363.36365	-25.83434	1295.52441	1293.93091	129.20395	1310.95581	1189.74536	376.52301	1313.15527	1146.18762	399.73163	1248.48596	1073.05310	370.20807	1361.39087	1141.74548	308.33136	1379.39526	1174.95752	206.74133	1380.65100	1096.15710	202.03232	1441.38159	1167.61731	157.36624	1166.85730	1141.81592	-77.32641	1178.43677	1036.21631	-91.72529	1141.11060	1025.26306	-4.22005	1213.04248	922.98297	-76.55891	1262.13586	815.79816	-29.45617	1187.96790	797.65881	-50.85273	1261.45557	732.14752	-68.66211
22300	89.19600	1184.28711	1431.58325	150.56636	1251.16602	1381.93054	299.37970	1174.56311	1363.36108	-25.84729	1295.54810	1293.92798	129.20108	1310.94409	1189.74927	376.45691	1313.48364	1145.75781	399.90747	1248.48438	1073.03162	370.04407	1361.29590	1141.86658	308.23956	1379.32849	1175.29272	206.74983	1380.57324	1096.48303	201.87982	1441.28809	1168.03870	157.29572	1166.91565	1141.83093	-77.35872	1178.50903	1036.22754	-91.74857	1141.17554	1025.26758	-4.25396	1213.39612	922.67902	-76.34661	1262.19885	815.81525	-29.47399	1188.03979	797.66809	-50.88080	1261.54041	732.16357	-68.68054
22301	89.20000	1184.32410	1431.59460	150.53145	1251.13306	1381.94250	299.36295	1174.62878	1363.35864	-25.86353	1295.57849	1293.92627	129.20000	1310.93457	1189.75073	376.38828	1313.91870	1145.19922	400.14404	1248.48389	1073.00964	369.87830	1361.20325	1141.97974	308.14832	1379.25671	1175.62793	206.74402	1380.51746	1096.82031	201.74045	1441.19336	1168.45093	157.23349	1166.97229	1141.84192	-77.39766	1178.57922	1036.24585	-91.78716	1141.23889	1025.28528	-4.29454	1213.53247	922.61182	-76.30797	1262.26904	815.82904	-29.48449	1188.11890	797.67651	-50.90584	1261.62805	732.18317	-68.70032
22302	89.20400	1184.36145	1431.60010	150.50684	1251.09216	1381.95117	299.35236	1174.69751	1363.36035	-25.88797	1295.60828	1293.92957	129.19229	1310.91516	1189.75012	376.31354	1313.25293	1145.98401	399.60980	1248.50000	1072.97900	369.71246	1360.71497	1142.01721	307.84515	1379.18127	1175.95190	206.71454	1380.45398	1097.17419	201.60300	1441.09229	1168.85156	157.16475	1167.02576	1141.84827	-77.43915	1178.64758	1036.25806	-91.83743	1141.30994	1025.28638	-4.33744	1213.62585	922.59668	-76.32416	1262.34192	815.85205	-29.49482	1188.19971	797.67316	-50.93088	1261.71948	732.20227	-68.71986
22303	89.20800	1184.40088	1431.59851	150.47586	1251.04407	1381.95740	299.33698	1174.74365	1363.35498	-25.89315	1295.63403	1293.92908	129.18243	1310.89502	1189.74731	376.23898	1313.07068	1146.18408	399.40704	1248.52124	1072.94714	369.54034	1359.73560	1141.97424	307.27798	1379.11597	1176.27612	206.70029	1380.38354	1097.53784	201.45564	1440.99207	1169.26074	157.08934	1167.07544	1141.85168	-77.48648	1178.71191	1036.25977	-91.87939	1141.38184	1025.28955	-4.38983	1213.70032	922.59918	-76.34774	1262.41113	815.86902	-29.51015	1188.28101	797.67621	-50.95673	1261.80713	732.22003	-68.73936
22304	89.21200	1184.43726	1431.59766	150.44450	1250.98865	1381.96301	299.32217	1174.80591	1363.34753	-25.91852	1295.65857	1293.92432	129.17546	1310.87476	1189.74133	376.16727	1313.01575	1146.22876	399.28412	1248.53662	1072.92578	369.37509	1359.48279	1142.09033	307.06534	1379.04431	1176.58289	206.67456	1380.31860	1097.89758	201.30830	1440.90466	1169.66650	157.00746	1167.12524	1141.85620	-77.53342	1178.77759	1036.26257	-91.92832	1141.43506	1025.30481	-4.42999	1213.14026	923.30432	-76.90421	1262.47656	815.88281	-29.52764	1188.36597	797.68994	-50.98657	1261.89331	732.23615	-68.75545
